<svg viewBox="-16 -32 880 192" width="880" height="192" xmlns="http://www.w3.org/2000/svg"><desc>Generated with https://github.com/Platane/snk</desc><style>@keyframes c0{1.27%{fill:var(--c1)}1.29%,to{fill:var(--ce)}}@keyframes c1{2.55%{fill:var(--c1)}2.57%,to{fill:var(--ce)}}@keyframes c2{3.82%{fill:var(--c1)}3.84%,to{fill:var(--ce)}}@keyframes c3{7.34%{fill:var(--c1)}7.36%,to{fill:var(--ce)}}@keyframes c4{7.98%{fill:var(--c1)}8%,to{fill:var(--ce)}}@keyframes c5{8.3%{fill:var(--c1)}8.32%,to{fill:var(--ce)}}@keyframes c6{9.57%{fill:var(--c1)}9.59%,to{fill:var(--ce)}}@keyframes c7{68.68%{fill:var(--c2)}68.7%,to{fill:var(--ce)}}@keyframes c8{11.17%{fill:var(--c1)}11.19%,to{fill:var(--ce)}}@keyframes c9{12.13%{fill:var(--c1)}12.15%,to{fill:var(--ce)}}@keyframes ca{49.51%{fill:var(--c2)}49.53%,to{fill:var(--ce)}}@keyframes cb{71.56%{fill:var(--c3)}71.58%,to{fill:var(--ce)}}@keyframes cc{43.76%{fill:var(--c1)}43.78%,to{fill:var(--ce)}}@keyframes cd{44.72%{fill:var(--c1)}44.74%,to{fill:var(--ce)}}@keyframes ce{13.09%{fill:var(--c1)}13.11%,to{fill:var(--ce)}}@keyframes cf{13.41%{fill:var(--c1)}13.43%,to{fill:var(--ce)}}@keyframes cg{13.73%{fill:var(--c1)}13.75%,to{fill:var(--ce)}}@keyframes ch{49.19%{fill:var(--c2)}49.21%,to{fill:var(--ce)}}@keyframes ci{71.87%{fill:var(--c3)}71.89%,to{fill:var(--ce)}}@keyframes cj{44.08%{fill:var(--c1)}44.1%,to{fill:var(--ce)}}@keyframes ck{45.68%{fill:var(--c2)}45.7%,to{fill:var(--ce)}}@keyframes cl{40.57%{fill:var(--c1)}40.59%,to{fill:var(--ce)}}@keyframes cm{14.69%{fill:var(--c1)}14.71%,to{fill:var(--ce)}}@keyframes cn{48.23%{fill:var(--c2)}48.25%,to{fill:var(--ce)}}@keyframes co{88.17%{fill:var(--c4)}88.19%,to{fill:var(--ce)}}@keyframes cp{72.51%{fill:var(--c3)}72.53%,to{fill:var(--ce)}}@keyframes cq{40.25%{fill:var(--c1)}40.27%,to{fill:var(--ce)}}@keyframes cr{15.01%{fill:var(--c1)}15.03%,to{fill:var(--ce)}}@keyframes cs{47.59%{fill:var(--c2)}47.61%,to{fill:var(--ce)}}@keyframes ct{17.56%{fill:var(--c1)}17.58%,to{fill:var(--ce)}}@keyframes cu{17.88%{fill:var(--c1)}17.9%,to{fill:var(--ce)}}@keyframes cv{15.33%{fill:var(--c1)}15.35%,to{fill:var(--ce)}}@keyframes cw{16.6%{fill:var(--c1)}16.62%,to{fill:var(--ce)}}@keyframes cx{46.64%{fill:var(--c2)}46.66%,to{fill:var(--ce)}}@keyframes cy{15.64%{fill:var(--c1)}15.66%,to{fill:var(--ce)}}@keyframes cz{16.28%{fill:var(--c1)}16.3%,to{fill:var(--ce)}}@keyframes c10{18.52%{fill:var(--c1)}18.54%,to{fill:var(--ce)}}@keyframes c11{52.71%{fill:var(--c2)}52.73%,to{fill:var(--ce)}}@keyframes c12{52.39%{fill:var(--c2)}52.41%,to{fill:var(--ce)}}@keyframes c13{19.8%{fill:var(--c1)}19.82%,to{fill:var(--ce)}}@keyframes c14{19.16%{fill:var(--c1)}19.18%,to{fill:var(--ce)}}@keyframes c15{85.29%{fill:var(--c4)}85.31%,to{fill:var(--ce)}}@keyframes c16{22.99%{fill:var(--c1)}23.01%,to{fill:var(--ce)}}@keyframes c17{76.03%{fill:var(--c3)}76.05%,to{fill:var(--ce)}}@keyframes c18{23.63%{fill:var(--c1)}23.65%,to{fill:var(--ce)}}@keyframes c19{54.62%{fill:var(--c2)}54.64%,to{fill:var(--ce)}}@keyframes c1a{21.08%{fill:var(--c1)}21.1%,to{fill:var(--ce)}}@keyframes c1b{22.35%{fill:var(--c1)}22.37%,to{fill:var(--ce)}}@keyframes c1c{26.51%{fill:var(--c1)}26.53%,to{fill:var(--ce)}}@keyframes c1d{80.82%{fill:var(--c4)}80.84%,to{fill:var(--ce)}}@keyframes c1e{78.9%{fill:var(--c3)}78.92%,to{fill:var(--ce)}}@keyframes c1f{28.11%{fill:var(--c1)}28.13%,to{fill:var(--ce)}}@keyframes c1g{57.82%{fill:var(--c2)}57.84%,to{fill:var(--ce)}}@keyframes c1h{28.42%{fill:var(--c1)}28.44%,to{fill:var(--ce)}}@keyframes c1i{34.49%{fill:var(--c1)}34.51%,to{fill:var(--ce)}}@keyframes c1j{58.78%{fill:var(--c2)}58.8%,to{fill:var(--ce)}}@keyframes c1k{29.38%{fill:var(--c1)}29.4%,to{fill:var(--ce)}}@keyframes c1l{59.1%{fill:var(--c2)}59.12%,to{fill:var(--ce)}}@keyframes c1m{30.66%{fill:var(--c1)}30.68%,to{fill:var(--ce)}}@keyframes c1n{30.98%{fill:var(--c1)}31%,to{fill:var(--ce)}}@keyframes c1o{33.22%{fill:var(--c1)}33.24%,to{fill:var(--ce)}}@keyframes c1p{32.9%{fill:var(--c1)}32.92%,to{fill:var(--ce)}}@keyframes c1q{30.02%{fill:var(--c1)}30.04%,to{fill:var(--ce)}}@keyframes c1r{31.3%{fill:var(--c1)}31.32%,to{fill:var(--ce)}}@keyframes u0{1.27%{transform:scale(0,1)}1.29%,2.55%{transform:scale(.02,1)}2.57%,3.82%{transform:scale(.05,1)}3.84%,7.34%{transform:scale(.07,1)}7.36%,7.98%{transform:scale(.09,1)}8%,8.3%{transform:scale(.12,1)}8.32%,9.57%{transform:scale(.14,1)}11.17%,9.59%{transform:scale(.16,1)}11.19%,12.13%{transform:scale(.19,1)}12.15%,13.09%{transform:scale(.21,1)}13.11%,13.41%{transform:scale(.23,1)}13.43%,13.73%{transform:scale(.26,1)}13.75%,14.69%{transform:scale(.28,1)}14.71%,15.01%{transform:scale(.3,1)}15.03%,15.33%{transform:scale(.33,1)}15.35%,15.64%{transform:scale(.35,1)}15.66%,16.28%{transform:scale(.37,1)}16.3%,16.6%{transform:scale(.4,1)}16.62%,17.56%{transform:scale(.42,1)}17.58%,17.88%{transform:scale(.44,1)}17.9%,18.52%{transform:scale(.47,1)}18.54%,19.16%{transform:scale(.49,1)}19.18%,19.8%{transform:scale(.51,1)}19.82%,21.08%{transform:scale(.53,1)}21.1%,22.35%{transform:scale(.56,1)}22.37%,22.99%{transform:scale(.58,1)}23.01%,23.63%{transform:scale(.6,1)}23.65%,26.51%{transform:scale(.63,1)}26.53%,28.11%{transform:scale(.65,1)}28.13%,28.42%{transform:scale(.67,1)}28.44%,29.38%{transform:scale(.7,1)}29.4%,30.02%{transform:scale(.72,1)}30.04%,30.66%{transform:scale(.74,1)}30.68%,30.98%{transform:scale(.77,1)}31%,31.3%{transform:scale(.79,1)}31.32%,32.9%{transform:scale(.81,1)}32.92%,33.22%{transform:scale(.84,1)}33.24%,34.49%{transform:scale(.86,1)}34.51%,40.25%{transform:scale(.88,1)}40.27%,40.57%{transform:scale(.91,1)}40.59%,43.76%{transform:scale(.93,1)}43.78%,44.08%{transform:scale(.95,1)}44.1%,44.72%{transform:scale(.98,1)}44.74%,to{transform:scale(1,1)}}@keyframes u1{45.68%{transform:scale(0,1)}45.7%,46.64%{transform:scale(.08,1)}46.66%,47.59%{transform:scale(.15,1)}47.61%,48.23%{transform:scale(.23,1)}48.25%,49.19%{transform:scale(.31,1)}49.21%,49.51%{transform:scale(.38,1)}49.53%,52.39%{transform:scale(.46,1)}52.41%,52.71%{transform:scale(.54,1)}52.73%,54.62%{transform:scale(.62,1)}54.64%,57.82%{transform:scale(.69,1)}57.84%,58.78%{transform:scale(.77,1)}58.8%,59.1%{transform:scale(.85,1)}59.12%,68.68%{transform:scale(.92,1)}68.7%,to{transform:scale(1,1)}}@keyframes u2{71.56%{transform:scale(0,1)}71.58%,71.87%{transform:scale(.2,1)}71.89%,72.51%{transform:scale(.4,1)}72.53%,76.03%{transform:scale(.6,1)}76.05%,78.9%{transform:scale(.8,1)}78.92%,to{transform:scale(1,1)}}@keyframes u3{80.82%{transform:scale(0,1)}80.84%,85.29%{transform:scale(.33,1)}85.31%,88.17%{transform:scale(.67,1)}88.19%,to{transform:scale(1,1)}}@keyframes s0{0%,99.68%{transform:translate(0,-16px)}1.28%{transform:translate(0,48px)}2.24%,97.44%{transform:translate(48px,48px)}2.56%{transform:translate(48px,64px)}6.71%{transform:translate(256px,64px)}7.35%{transform:translate(256px,32px)}7.67%{transform:translate(272px,32px)}7.99%{transform:translate(272px,16px)}9.27%{transform:translate(336px,16px)}9.58%{transform:translate(336px,32px)}11.5%{transform:translate(432px,32px)}12.14%{transform:translate(432px,0)}13.1%{transform:translate(480px,0)}13.74%,48.88%{transform:translate(480px,32px)}14.06%{transform:translate(496px,32px)}14.38%{transform:translate(496px,16px)}15.65%{transform:translate(560px,16px)}16.29%{transform:translate(560px,48px)}16.61%,47.28%{transform:translate(544px,48px)}16.93%{transform:translate(544px,64px)}17.25%{transform:translate(528px,64px)}17.89%{transform:translate(528px,96px)}19.17%{transform:translate(592px,96px)}19.49%{transform:translate(592px,80px)}19.81%{transform:translate(576px,80px)}20.13%{transform:translate(576px,64px)}21.41%{transform:translate(640px,64px)}22.36%{transform:translate(640px,16px)}23%{transform:translate(608px,16px)}23.32%{transform:translate(608px,32px)}25.24%{transform:translate(704px,32px)}26.52%{transform:translate(704px,96px)}26.84%,81.15%{transform:translate(720px,96px)}27.16%{transform:translate(720px,80px)}27.48%{transform:translate(736px,80px)}27.8%{transform:translate(736px,64px)}28.43%{transform:translate(768px,64px)}28.75%{transform:translate(768px,48px)}29.71%{transform:translate(816px,48px)}30.35%{transform:translate(816px,80px)}30.67%,59.42%{transform:translate(800px,80px)}30.99%{transform:translate(800px,96px)}31.31%{transform:translate(816px,96px)}33.23%{transform:translate(816px,0)}33.87%{transform:translate(784px,0)}34.5%{transform:translate(784px,32px)}38.98%{transform:translate(560px,32px)}39.62%{transform:translate(560px,0)}41.85%{transform:translate(448px,0)}43.45%{transform:translate(448px,80px)}44.09%{transform:translate(480px,80px)}44.41%{transform:translate(480px,96px)}44.73%,70.93%{transform:translate(464px,96px)}45.05%{transform:translate(464px,80px)}46.65%{transform:translate(544px,80px)}47.6%{transform:translate(528px,48px)}47.92%{transform:translate(528px,32px)}49.2%{transform:translate(480px,48px)}49.52%{transform:translate(464px,48px)}49.84%{transform:translate(464px,32px)}52.08%{transform:translate(576px,32px)}52.72%{transform:translate(576px,0)}53.04%{transform:translate(592px,0)}53.35%{transform:translate(592px,16px)}53.99%{transform:translate(624px,16px)}54.63%{transform:translate(624px,48px)}57.19%{transform:translate(752px,48px)}57.83%{transform:translate(752px,80px)}58.47%{transform:translate(784px,80px)}58.79%{transform:translate(784px,64px)}59.11%{transform:translate(800px,64px)}68.37%{transform:translate(352px,80px)}68.69%{transform:translate(352px,96px)}71.57%{transform:translate(464px,64px)}74.76%{transform:translate(624px,64px)}76.04%{transform:translate(624px,0)}78.59%{transform:translate(752px,0)}78.91%{transform:translate(752px,16px)}79.23%{transform:translate(736px,16px)}80.83%{transform:translate(736px,96px)}83.07%{transform:translate(720px,0)}87.22%{transform:translate(512px,0)}88.18%{transform:translate(512px,48px)}98.72%{transform:translate(48px,-16px)}}@keyframes s1{0%,99.68%{transform:translate(16px,-16px)}.32%{transform:translate(0,-16px)}1.6%{transform:translate(0,48px)}2.56%,97.76%{transform:translate(48px,48px)}2.88%{transform:translate(48px,64px)}7.03%{transform:translate(256px,64px)}7.67%{transform:translate(256px,32px)}7.99%{transform:translate(272px,32px)}8.31%{transform:translate(272px,16px)}9.58%{transform:translate(336px,16px)}9.9%{transform:translate(336px,32px)}11.82%{transform:translate(432px,32px)}12.46%{transform:translate(432px,0)}13.42%{transform:translate(480px,0)}14.06%,49.2%{transform:translate(480px,32px)}14.38%{transform:translate(496px,32px)}14.7%{transform:translate(496px,16px)}15.97%{transform:translate(560px,16px)}16.61%{transform:translate(560px,48px)}16.93%,47.6%{transform:translate(544px,48px)}17.25%{transform:translate(544px,64px)}17.57%{transform:translate(528px,64px)}18.21%{transform:translate(528px,96px)}19.49%{transform:translate(592px,96px)}19.81%{transform:translate(592px,80px)}20.13%{transform:translate(576px,80px)}20.45%{transform:translate(576px,64px)}21.73%{transform:translate(640px,64px)}22.68%{transform:translate(640px,16px)}23.32%{transform:translate(608px,16px)}23.64%{transform:translate(608px,32px)}25.56%{transform:translate(704px,32px)}26.84%{transform:translate(704px,96px)}27.16%,81.47%{transform:translate(720px,96px)}27.48%{transform:translate(720px,80px)}27.8%{transform:translate(736px,80px)}28.12%{transform:translate(736px,64px)}28.75%{transform:translate(768px,64px)}29.07%{transform:translate(768px,48px)}30.03%{transform:translate(816px,48px)}30.67%{transform:translate(816px,80px)}30.99%,59.74%{transform:translate(800px,80px)}31.31%{transform:translate(800px,96px)}31.63%{transform:translate(816px,96px)}33.55%{transform:translate(816px,0)}34.19%{transform:translate(784px,0)}34.82%{transform:translate(784px,32px)}39.3%{transform:translate(560px,32px)}39.94%{transform:translate(560px,0)}42.17%{transform:translate(448px,0)}43.77%{transform:translate(448px,80px)}44.41%{transform:translate(480px,80px)}44.73%{transform:translate(480px,96px)}45.05%,71.25%{transform:translate(464px,96px)}45.37%{transform:translate(464px,80px)}46.96%{transform:translate(544px,80px)}47.92%{transform:translate(528px,48px)}48.24%{transform:translate(528px,32px)}49.52%{transform:translate(480px,48px)}49.84%{transform:translate(464px,48px)}50.16%{transform:translate(464px,32px)}52.4%{transform:translate(576px,32px)}53.04%{transform:translate(576px,0)}53.35%{transform:translate(592px,0)}53.67%{transform:translate(592px,16px)}54.31%{transform:translate(624px,16px)}54.95%{transform:translate(624px,48px)}57.51%{transform:translate(752px,48px)}58.15%{transform:translate(752px,80px)}58.79%{transform:translate(784px,80px)}59.11%{transform:translate(784px,64px)}59.42%{transform:translate(800px,64px)}68.69%{transform:translate(352px,80px)}69.01%{transform:translate(352px,96px)}71.88%{transform:translate(464px,64px)}75.08%{transform:translate(624px,64px)}76.36%{transform:translate(624px,0)}78.91%{transform:translate(752px,0)}79.23%{transform:translate(752px,16px)}79.55%{transform:translate(736px,16px)}81.15%{transform:translate(736px,96px)}83.39%{transform:translate(720px,0)}87.54%{transform:translate(512px,0)}88.5%{transform:translate(512px,48px)}99.04%{transform:translate(48px,-16px)}}@keyframes s2{0%,99.68%{transform:translate(32px,-16px)}.64%{transform:translate(0,-16px)}1.92%{transform:translate(0,48px)}2.88%,98.08%{transform:translate(48px,48px)}3.19%{transform:translate(48px,64px)}7.35%{transform:translate(256px,64px)}7.99%{transform:translate(256px,32px)}8.31%{transform:translate(272px,32px)}8.63%{transform:translate(272px,16px)}9.9%{transform:translate(336px,16px)}10.22%{transform:translate(336px,32px)}12.14%{transform:translate(432px,32px)}12.78%{transform:translate(432px,0)}13.74%{transform:translate(480px,0)}14.38%,49.52%{transform:translate(480px,32px)}14.7%{transform:translate(496px,32px)}15.02%{transform:translate(496px,16px)}16.29%{transform:translate(560px,16px)}16.93%{transform:translate(560px,48px)}17.25%,47.92%{transform:translate(544px,48px)}17.57%{transform:translate(544px,64px)}17.89%{transform:translate(528px,64px)}18.53%{transform:translate(528px,96px)}19.81%{transform:translate(592px,96px)}20.13%{transform:translate(592px,80px)}20.45%{transform:translate(576px,80px)}20.77%{transform:translate(576px,64px)}22.04%{transform:translate(640px,64px)}23%{transform:translate(640px,16px)}23.64%{transform:translate(608px,16px)}23.96%{transform:translate(608px,32px)}25.88%{transform:translate(704px,32px)}27.16%{transform:translate(704px,96px)}27.48%,81.79%{transform:translate(720px,96px)}27.8%{transform:translate(720px,80px)}28.12%{transform:translate(736px,80px)}28.43%{transform:translate(736px,64px)}29.07%{transform:translate(768px,64px)}29.39%{transform:translate(768px,48px)}30.35%{transform:translate(816px,48px)}30.99%{transform:translate(816px,80px)}31.31%,60.06%{transform:translate(800px,80px)}31.63%{transform:translate(800px,96px)}31.95%{transform:translate(816px,96px)}33.87%{transform:translate(816px,0)}34.5%{transform:translate(784px,0)}35.14%{transform:translate(784px,32px)}39.62%{transform:translate(560px,32px)}40.26%{transform:translate(560px,0)}42.49%{transform:translate(448px,0)}44.09%{transform:translate(448px,80px)}44.73%{transform:translate(480px,80px)}45.05%{transform:translate(480px,96px)}45.37%,71.57%{transform:translate(464px,96px)}45.69%{transform:translate(464px,80px)}47.28%{transform:translate(544px,80px)}48.24%{transform:translate(528px,48px)}48.56%{transform:translate(528px,32px)}49.84%{transform:translate(480px,48px)}50.16%{transform:translate(464px,48px)}50.48%{transform:translate(464px,32px)}52.72%{transform:translate(576px,32px)}53.35%{transform:translate(576px,0)}53.67%{transform:translate(592px,0)}53.99%{transform:translate(592px,16px)}54.63%{transform:translate(624px,16px)}55.27%{transform:translate(624px,48px)}57.83%{transform:translate(752px,48px)}58.47%{transform:translate(752px,80px)}59.11%{transform:translate(784px,80px)}59.42%{transform:translate(784px,64px)}59.74%{transform:translate(800px,64px)}69.01%{transform:translate(352px,80px)}69.33%{transform:translate(352px,96px)}72.2%{transform:translate(464px,64px)}75.4%{transform:translate(624px,64px)}76.68%{transform:translate(624px,0)}79.23%{transform:translate(752px,0)}79.55%{transform:translate(752px,16px)}79.87%{transform:translate(736px,16px)}81.47%{transform:translate(736px,96px)}83.71%{transform:translate(720px,0)}87.86%{transform:translate(512px,0)}88.82%{transform:translate(512px,48px)}99.36%{transform:translate(48px,-16px)}}@keyframes s3{0%,99.68%{transform:translate(48px,-16px)}.96%{transform:translate(0,-16px)}2.24%{transform:translate(0,48px)}3.19%,98.4%{transform:translate(48px,48px)}3.51%{transform:translate(48px,64px)}7.67%{transform:translate(256px,64px)}8.31%{transform:translate(256px,32px)}8.63%{transform:translate(272px,32px)}8.95%{transform:translate(272px,16px)}10.22%{transform:translate(336px,16px)}10.54%{transform:translate(336px,32px)}12.46%{transform:translate(432px,32px)}13.1%{transform:translate(432px,0)}14.06%{transform:translate(480px,0)}14.7%,49.84%{transform:translate(480px,32px)}15.02%{transform:translate(496px,32px)}15.34%{transform:translate(496px,16px)}16.61%{transform:translate(560px,16px)}17.25%{transform:translate(560px,48px)}17.57%,48.24%{transform:translate(544px,48px)}17.89%{transform:translate(544px,64px)}18.21%{transform:translate(528px,64px)}18.85%{transform:translate(528px,96px)}20.13%{transform:translate(592px,96px)}20.45%{transform:translate(592px,80px)}20.77%{transform:translate(576px,80px)}21.09%{transform:translate(576px,64px)}22.36%{transform:translate(640px,64px)}23.32%{transform:translate(640px,16px)}23.96%{transform:translate(608px,16px)}24.28%{transform:translate(608px,32px)}26.2%{transform:translate(704px,32px)}27.48%{transform:translate(704px,96px)}27.8%,82.11%{transform:translate(720px,96px)}28.12%{transform:translate(720px,80px)}28.43%{transform:translate(736px,80px)}28.75%{transform:translate(736px,64px)}29.39%{transform:translate(768px,64px)}29.71%{transform:translate(768px,48px)}30.67%{transform:translate(816px,48px)}31.31%{transform:translate(816px,80px)}31.63%,60.38%{transform:translate(800px,80px)}31.95%{transform:translate(800px,96px)}32.27%{transform:translate(816px,96px)}34.19%{transform:translate(816px,0)}34.82%{transform:translate(784px,0)}35.46%{transform:translate(784px,32px)}39.94%{transform:translate(560px,32px)}40.58%{transform:translate(560px,0)}42.81%{transform:translate(448px,0)}44.41%{transform:translate(448px,80px)}45.05%{transform:translate(480px,80px)}45.37%{transform:translate(480px,96px)}45.69%,71.88%{transform:translate(464px,96px)}46.01%{transform:translate(464px,80px)}47.6%{transform:translate(544px,80px)}48.56%{transform:translate(528px,48px)}48.88%{transform:translate(528px,32px)}50.16%{transform:translate(480px,48px)}50.48%{transform:translate(464px,48px)}50.8%{transform:translate(464px,32px)}53.04%{transform:translate(576px,32px)}53.67%{transform:translate(576px,0)}53.99%{transform:translate(592px,0)}54.31%{transform:translate(592px,16px)}54.95%{transform:translate(624px,16px)}55.59%{transform:translate(624px,48px)}58.15%{transform:translate(752px,48px)}58.79%{transform:translate(752px,80px)}59.42%{transform:translate(784px,80px)}59.74%{transform:translate(784px,64px)}60.06%{transform:translate(800px,64px)}69.33%{transform:translate(352px,80px)}69.65%{transform:translate(352px,96px)}72.52%{transform:translate(464px,64px)}75.72%{transform:translate(624px,64px)}77%{transform:translate(624px,0)}79.55%{transform:translate(752px,0)}79.87%{transform:translate(752px,16px)}80.19%{transform:translate(736px,16px)}81.79%{transform:translate(736px,96px)}84.03%{transform:translate(720px,0)}88.18%{transform:translate(512px,0)}89.14%{transform:translate(512px,48px)}}:root{--cb:#1b1f230a;--cs:purple;--ce:#ebedf0;--c0:#ebedf0;--c1:#9be9a8;--c2:#40c463;--c3:#30a14e;--c4:#216e39}@media (prefers-color-scheme:dark){:root{--cb:#1b1f230a;--cs:purple;--ce:#161b22;--c1:#01311f;--c2:#034525;--c3:#0f6d31;--c4:#00c647}}.c{shape-rendering:geometricPrecision;fill:var(--ce);stroke-width:1px;stroke:var(--cb);animation:none 31300ms linear infinite}.c.c0{fill:var(--c1);animation-name:c0}.c.c1,.c.c2,.c.c3{fill:var(--c1);animation-name:c1}.c.c2,.c.c3{animation-name:c2}.c.c3{animation-name:c3}.c.c4,.c.c5,.c.c6{fill:var(--c1);animation-name:c4}.c.c5,.c.c6{animation-name:c5}.c.c6{animation-name:c6}.c.c7{fill:var(--c2);animation-name:c7}.c.c8,.c.c9{fill:var(--c1);animation-name:c8}.c.c9{animation-name:c9}.c.ca{fill:var(--c2);animation-name:ca}.c.cb{fill:var(--c3);animation-name:cb}.c.cc,.c.cd{fill:var(--c1);animation-name:cc}.c.cd{animation-name:cd}.c.ce,.c.cf,.c.cg{fill:var(--c1);animation-name:ce}.c.cf,.c.cg{animation-name:cf}.c.cg{animation-name:cg}.c.ch{fill:var(--c2);animation-name:ch}.c.ci{fill:var(--c3);animation-name:ci}.c.cj{fill:var(--c1);animation-name:cj}.c.ck{fill:var(--c2);animation-name:ck}.c.cl,.c.cm{fill:var(--c1);animation-name:cl}.c.cm{animation-name:cm}.c.cn{fill:var(--c2);animation-name:cn}.c.co{fill:var(--c4);animation-name:co}.c.cp{fill:var(--c3);animation-name:cp}.c.cq,.c.cr{fill:var(--c1);animation-name:cq}.c.cr{animation-name:cr}.c.cs{fill:var(--c2);animation-name:cs}.c.ct{fill:var(--c1);animation-name:ct}.c.cu,.c.cv,.c.cw{fill:var(--c1);animation-name:cu}.c.cv,.c.cw{animation-name:cv}.c.cw{animation-name:cw}.c.cx{fill:var(--c2);animation-name:cx}.c.c10,.c.cy,.c.cz{fill:var(--c1);animation-name:cy}.c.c10,.c.cz{animation-name:cz}.c.c10{animation-name:c10}.c.c11,.c.c12{fill:var(--c2);animation-name:c11}.c.c12{animation-name:c12}.c.c13,.c.c14{fill:var(--c1);animation-name:c13}.c.c14{animation-name:c14}.c.c15{fill:var(--c4);animation-name:c15}.c.c16{fill:var(--c1);animation-name:c16}.c.c17{fill:var(--c3);animation-name:c17}.c.c18{fill:var(--c1);animation-name:c18}.c.c19{fill:var(--c2);animation-name:c19}.c.c1a,.c.c1b,.c.c1c{fill:var(--c1);animation-name:c1a}.c.c1b,.c.c1c{animation-name:c1b}.c.c1c{animation-name:c1c}.c.c1d{fill:var(--c4);animation-name:c1d}.c.c1e{fill:var(--c3);animation-name:c1e}.c.c1f{fill:var(--c1);animation-name:c1f}.c.c1g{fill:var(--c2);animation-name:c1g}.c.c1h,.c.c1i{fill:var(--c1);animation-name:c1h}.c.c1i{animation-name:c1i}.c.c1j{fill:var(--c2);animation-name:c1j}.c.c1k{fill:var(--c1);animation-name:c1k}.c.c1l{fill:var(--c2);animation-name:c1l}.c.c1m,.c.c1n,.c.c1o{fill:var(--c1);animation-name:c1m}.c.c1n,.c.c1o{animation-name:c1n}.c.c1o{animation-name:c1o}.c.c1p,.c.c1q,.c.c1r{fill:var(--c1);animation-name:c1p}.c.c1q,.c.c1r{animation-name:c1q}.c.c1r{animation-name:c1r}.s,.u{animation:none linear 31300ms infinite}.u,.u.u0{transform-origin:0 0}.u{transform:scale(0,1)}.u.u0{fill:var(--c1);animation-name:u0}.u.u1{fill:var(--c2);animation-name:u1;transform-origin:569.8px 0}.u.u2{fill:var(--c3);animation-name:u2;transform-origin:742px 0}.u.u3{fill:var(--c4);animation-name:u3;transform-origin:808.3px 0}.s{shape-rendering:geometricPrecision;fill:var(--cs)}.s.s0{transform:translate(0,-16px);animation-name:s0}.s.s1{transform:translate(16px,-16px);animation-name:s1}.s.s2{transform:translate(32px,-16px);animation-name:s2}.s.s3{transform:translate(48px,-16px);animation-name:s3}</style><rect class="c" x="2" y="2" rx="2" ry="2" width="12" height="12"/><rect class="c" x="2" y="18" rx="2" ry="2" width="12" height="12"/><rect class="c" x="2" y="34" rx="2" ry="2" width="12" height="12"/><rect class="c c0" x="2" y="50" rx="2" ry="2" width="12" height="12"/><rect class="c" x="2" y="66" rx="2" ry="2" width="12" height="12"/><rect class="c" x="2" y="82" rx="2" ry="2" width="12" height="12"/><rect class="c" x="2" y="98" rx="2" ry="2" width="12" height="12"/><rect class="c" x="18" y="2" rx="2" ry="2" width="12" height="12"/><rect class="c" x="18" y="18" rx="2" ry="2" width="12" height="12"/><rect class="c" x="18" y="34" rx="2" ry="2" width="12" height="12"/><rect class="c" x="18" y="50" rx="2" ry="2" width="12" height="12"/><rect class="c" x="18" y="66" rx="2" ry="2" width="12" height="12"/><rect class="c" x="18" y="82" rx="2" ry="2" width="12" height="12"/><rect class="c" x="18" y="98" rx="2" ry="2" width="12" height="12"/><rect class="c" x="34" y="2" rx="2" ry="2" width="12" height="12"/><rect class="c" x="34" y="18" rx="2" ry="2" width="12" height="12"/><rect class="c" x="34" y="34" rx="2" ry="2" width="12" height="12"/><rect class="c" x="34" y="50" rx="2" ry="2" width="12" height="12"/><rect class="c" x="34" y="66" rx="2" ry="2" width="12" height="12"/><rect class="c" x="34" y="82" rx="2" ry="2" width="12" height="12"/><rect class="c" x="34" y="98" rx="2" ry="2" width="12" height="12"/><rect class="c" x="50" y="2" rx="2" ry="2" width="12" height="12"/><rect class="c" x="50" y="18" rx="2" ry="2" width="12" height="12"/><rect class="c" x="50" y="34" rx="2" ry="2" width="12" height="12"/><rect class="c" x="50" y="50" rx="2" ry="2" width="12" height="12"/><rect class="c c1" x="50" y="66" rx="2" ry="2" width="12" height="12"/><rect class="c" x="50" y="82" rx="2" ry="2" width="12" height="12"/><rect class="c" x="50" y="98" rx="2" ry="2" width="12" height="12"/><rect class="c" x="66" y="2" rx="2" ry="2" width="12" height="12"/><rect class="c" x="66" y="18" rx="2" ry="2" width="12" height="12"/><rect class="c" x="66" y="34" rx="2" ry="2" width="12" height="12"/><rect class="c" x="66" y="50" rx="2" ry="2" width="12" height="12"/><rect class="c" x="66" y="66" rx="2" ry="2" width="12" height="12"/><rect class="c" x="66" y="82" rx="2" ry="2" width="12" height="12"/><rect class="c" x="66" y="98" rx="2" ry="2" width="12" height="12"/><rect class="c" x="82" y="2" rx="2" ry="2" width="12" height="12"/><rect class="c" x="82" y="18" rx="2" ry="2" width="12" height="12"/><rect class="c" x="82" y="34" rx="2" ry="2" width="12" height="12"/><rect class="c" x="82" y="50" rx="2" ry="2" width="12" height="12"/><rect class="c" x="82" y="66" rx="2" ry="2" width="12" height="12"/><rect class="c" x="82" y="82" rx="2" ry="2" width="12" height="12"/><rect class="c" x="82" y="98" rx="2" ry="2" width="12" height="12"/><rect class="c" x="98" y="2" rx="2" ry="2" width="12" height="12"/><rect class="c" x="98" y="18" rx="2" ry="2" width="12" height="12"/><rect class="c" x="98" y="34" rx="2" ry="2" width="12" height="12"/><rect class="c" x="98" y="50" rx="2" ry="2" width="12" height="12"/><rect class="c" x="98" y="66" rx="2" ry="2" width="12" height="12"/><rect class="c" x="98" y="82" rx="2" ry="2" width="12" height="12"/><rect class="c" x="98" y="98" rx="2" ry="2" width="12" height="12"/><rect class="c" x="114" y="2" rx="2" ry="2" width="12" height="12"/><rect class="c" x="114" y="18" rx="2" ry="2" width="12" height="12"/><rect class="c" x="114" y="34" rx="2" ry="2" width="12" height="12"/><rect class="c" x="114" y="50" rx="2" ry="2" width="12" height="12"/><rect class="c c2" x="114" y="66" rx="2" ry="2" width="12" height="12"/><rect class="c" x="114" y="82" rx="2" ry="2" width="12" height="12"/><rect class="c" x="114" y="98" rx="2" ry="2" width="12" height="12"/><rect class="c" x="130" y="2" rx="2" ry="2" width="12" height="12"/><rect class="c" x="130" y="18" rx="2" ry="2" width="12" height="12"/><rect class="c" x="130" y="34" rx="2" ry="2" width="12" height="12"/><rect class="c" x="130" y="50" rx="2" ry="2" width="12" height="12"/><rect class="c" x="130" y="66" rx="2" ry="2" width="12" height="12"/><rect class="c" x="130" y="82" rx="2" ry="2" width="12" height="12"/><rect class="c" x="130" y="98" rx="2" ry="2" width="12" height="12"/><rect class="c" x="146" y="2" rx="2" ry="2" width="12" height="12"/><rect class="c" x="146" y="18" rx="2" ry="2" width="12" height="12"/><rect class="c" x="146" y="34" rx="2" ry="2" width="12" height="12"/><rect class="c" x="146" y="50" rx="2" ry="2" width="12" height="12"/><rect class="c" x="146" y="66" rx="2" ry="2" width="12" height="12"/><rect class="c" x="146" y="82" rx="2" ry="2" width="12" height="12"/><rect class="c" x="146" y="98" rx="2" ry="2" width="12" height="12"/><rect class="c" x="162" y="2" rx="2" ry="2" width="12" height="12"/><rect class="c" x="162" y="18" rx="2" ry="2" width="12" height="12"/><rect class="c" x="162" y="34" rx="2" ry="2" width="12" height="12"/><rect class="c" x="162" y="50" rx="2" ry="2" width="12" height="12"/><rect class="c" x="162" y="66" rx="2" ry="2" width="12" height="12"/><rect class="c" x="162" y="82" rx="2" ry="2" width="12" height="12"/><rect class="c" x="162" y="98" rx="2" ry="2" width="12" height="12"/><rect class="c" x="178" y="2" rx="2" ry="2" width="12" height="12"/><rect class="c" x="178" y="18" rx="2" ry="2" width="12" height="12"/><rect class="c" x="178" y="34" rx="2" ry="2" width="12" height="12"/><rect class="c" x="178" y="50" rx="2" ry="2" width="12" height="12"/><rect class="c" x="178" y="66" rx="2" ry="2" width="12" height="12"/><rect class="c" x="178" y="82" rx="2" ry="2" width="12" height="12"/><rect class="c" x="178" y="98" rx="2" ry="2" width="12" height="12"/><rect class="c" x="194" y="2" rx="2" ry="2" width="12" height="12"/><rect class="c" x="194" y="18" rx="2" ry="2" width="12" height="12"/><rect class="c" x="194" y="34" rx="2" ry="2" width="12" height="12"/><rect class="c" x="194" y="50" rx="2" ry="2" width="12" height="12"/><rect class="c" x="194" y="66" rx="2" ry="2" width="12" height="12"/><rect class="c" x="194" y="82" rx="2" ry="2" width="12" height="12"/><rect class="c" x="194" y="98" rx="2" ry="2" width="12" height="12"/><rect class="c" x="210" y="2" rx="2" ry="2" width="12" height="12"/><rect class="c" x="210" y="18" rx="2" ry="2" width="12" height="12"/><rect class="c" x="210" y="34" rx="2" ry="2" width="12" height="12"/><rect class="c" x="210" y="50" rx="2" ry="2" width="12" height="12"/><rect class="c" x="210" y="66" rx="2" ry="2" width="12" height="12"/><rect class="c" x="210" y="82" rx="2" ry="2" width="12" height="12"/><rect class="c" x="210" y="98" rx="2" ry="2" width="12" height="12"/><rect class="c" x="226" y="2" rx="2" ry="2" width="12" height="12"/><rect class="c" x="226" y="18" rx="2" ry="2" width="12" height="12"/><rect class="c" x="226" y="34" rx="2" ry="2" width="12" height="12"/><rect class="c" x="226" y="50" rx="2" ry="2" width="12" height="12"/><rect class="c" x="226" y="66" rx="2" ry="2" width="12" height="12"/><rect class="c" x="226" y="82" rx="2" ry="2" width="12" height="12"/><rect class="c" x="226" y="98" rx="2" ry="2" width="12" height="12"/><rect class="c" x="242" y="2" rx="2" ry="2" width="12" height="12"/><rect class="c" x="242" y="18" rx="2" ry="2" width="12" height="12"/><rect class="c" x="242" y="34" rx="2" ry="2" width="12" height="12"/><rect class="c" x="242" y="50" rx="2" ry="2" width="12" height="12"/><rect class="c" x="242" y="66" rx="2" ry="2" width="12" height="12"/><rect class="c" x="242" y="82" rx="2" ry="2" width="12" height="12"/><rect class="c" x="242" y="98" rx="2" ry="2" width="12" height="12"/><rect class="c" x="258" y="2" rx="2" ry="2" width="12" height="12"/><rect class="c" x="258" y="18" rx="2" ry="2" width="12" height="12"/><rect class="c c3" x="258" y="34" rx="2" ry="2" width="12" height="12"/><rect class="c" x="258" y="50" rx="2" ry="2" width="12" height="12"/><rect class="c" x="258" y="66" rx="2" ry="2" width="12" height="12"/><rect class="c" x="258" y="82" rx="2" ry="2" width="12" height="12"/><rect class="c" x="258" y="98" rx="2" ry="2" width="12" height="12"/><rect class="c" x="274" y="2" rx="2" ry="2" width="12" height="12"/><rect class="c c4" x="274" y="18" rx="2" ry="2" width="12" height="12"/><rect class="c" x="274" y="34" rx="2" ry="2" width="12" height="12"/><rect class="c" x="274" y="50" rx="2" ry="2" width="12" height="12"/><rect class="c" x="274" y="66" rx="2" ry="2" width="12" height="12"/><rect class="c" x="274" y="82" rx="2" ry="2" width="12" height="12"/><rect class="c" x="274" y="98" rx="2" ry="2" width="12" height="12"/><rect class="c" x="290" y="2" rx="2" ry="2" width="12" height="12"/><rect class="c c5" x="290" y="18" rx="2" ry="2" width="12" height="12"/><rect class="c" x="290" y="34" rx="2" ry="2" width="12" height="12"/><rect class="c" x="290" y="50" rx="2" ry="2" width="12" height="12"/><rect class="c" x="290" y="66" rx="2" ry="2" width="12" height="12"/><rect class="c" x="290" y="82" rx="2" ry="2" width="12" height="12"/><rect class="c" x="290" y="98" rx="2" ry="2" width="12" height="12"/><rect class="c" x="306" y="2" rx="2" ry="2" width="12" height="12"/><rect class="c" x="306" y="18" rx="2" ry="2" width="12" height="12"/><rect class="c" x="306" y="34" rx="2" ry="2" width="12" height="12"/><rect class="c" x="306" y="50" rx="2" ry="2" width="12" height="12"/><rect class="c" x="306" y="66" rx="2" ry="2" width="12" height="12"/><rect class="c" x="306" y="82" rx="2" ry="2" width="12" height="12"/><rect class="c" x="306" y="98" rx="2" ry="2" width="12" height="12"/><rect class="c" x="322" y="2" rx="2" ry="2" width="12" height="12"/><rect class="c" x="322" y="18" rx="2" ry="2" width="12" height="12"/><rect class="c" x="322" y="34" rx="2" ry="2" width="12" height="12"/><rect class="c" x="322" y="50" rx="2" ry="2" width="12" height="12"/><rect class="c" x="322" y="66" rx="2" ry="2" width="12" height="12"/><rect class="c" x="322" y="82" rx="2" ry="2" width="12" height="12"/><rect class="c" x="322" y="98" rx="2" ry="2" width="12" height="12"/><rect class="c" x="338" y="2" rx="2" ry="2" width="12" height="12"/><rect class="c" x="338" y="18" rx="2" ry="2" width="12" height="12"/><rect class="c c6" x="338" y="34" rx="2" ry="2" width="12" height="12"/><rect class="c" x="338" y="50" rx="2" ry="2" width="12" height="12"/><rect class="c" x="338" y="66" rx="2" ry="2" width="12" height="12"/><rect class="c" x="338" y="82" rx="2" ry="2" width="12" height="12"/><rect class="c" x="338" y="98" rx="2" ry="2" width="12" height="12"/><rect class="c" x="354" y="2" rx="2" ry="2" width="12" height="12"/><rect class="c" x="354" y="18" rx="2" ry="2" width="12" height="12"/><rect class="c" x="354" y="34" rx="2" ry="2" width="12" height="12"/><rect class="c" x="354" y="50" rx="2" ry="2" width="12" height="12"/><rect class="c" x="354" y="66" rx="2" ry="2" width="12" height="12"/><rect class="c" x="354" y="82" rx="2" ry="2" width="12" height="12"/><rect class="c c7" x="354" y="98" rx="2" ry="2" width="12" height="12"/><rect class="c" x="370" y="2" rx="2" ry="2" width="12" height="12"/><rect class="c" x="370" y="18" rx="2" ry="2" width="12" height="12"/><rect class="c" x="370" y="34" rx="2" ry="2" width="12" height="12"/><rect class="c" x="370" y="50" rx="2" ry="2" width="12" height="12"/><rect class="c" x="370" y="66" rx="2" ry="2" width="12" height="12"/><rect class="c" x="370" y="82" rx="2" ry="2" width="12" height="12"/><rect class="c" x="370" y="98" rx="2" ry="2" width="12" height="12"/><rect class="c" x="386" y="2" rx="2" ry="2" width="12" height="12"/><rect class="c" x="386" y="18" rx="2" ry="2" width="12" height="12"/><rect class="c" x="386" y="34" rx="2" ry="2" width="12" height="12"/><rect class="c" x="386" y="50" rx="2" ry="2" width="12" height="12"/><rect class="c" x="386" y="66" rx="2" ry="2" width="12" height="12"/><rect class="c" x="386" y="82" rx="2" ry="2" width="12" height="12"/><rect class="c" x="386" y="98" rx="2" ry="2" width="12" height="12"/><rect class="c" x="402" y="2" rx="2" ry="2" width="12" height="12"/><rect class="c" x="402" y="18" rx="2" ry="2" width="12" height="12"/><rect class="c" x="402" y="34" rx="2" ry="2" width="12" height="12"/><rect class="c" x="402" y="50" rx="2" ry="2" width="12" height="12"/><rect class="c" x="402" y="66" rx="2" ry="2" width="12" height="12"/><rect class="c" x="402" y="82" rx="2" ry="2" width="12" height="12"/><rect class="c" x="402" y="98" rx="2" ry="2" width="12" height="12"/><rect class="c" x="418" y="2" rx="2" ry="2" width="12" height="12"/><rect class="c" x="418" y="18" rx="2" ry="2" width="12" height="12"/><rect class="c c8" x="418" y="34" rx="2" ry="2" width="12" height="12"/><rect class="c" x="418" y="50" rx="2" ry="2" width="12" height="12"/><rect class="c" x="418" y="66" rx="2" ry="2" width="12" height="12"/><rect class="c" x="418" y="82" rx="2" ry="2" width="12" height="12"/><rect class="c" x="418" y="98" rx="2" ry="2" width="12" height="12"/><rect class="c c9" x="434" y="2" rx="2" ry="2" width="12" height="12"/><rect class="c" x="434" y="18" rx="2" ry="2" width="12" height="12"/><rect class="c" x="434" y="34" rx="2" ry="2" width="12" height="12"/><rect class="c" x="434" y="50" rx="2" ry="2" width="12" height="12"/><rect class="c" x="434" y="66" rx="2" ry="2" width="12" height="12"/><rect class="c" x="434" y="82" rx="2" ry="2" width="12" height="12"/><rect class="c" x="434" y="98" rx="2" ry="2" width="12" height="12"/><rect class="c" x="450" y="2" rx="2" ry="2" width="12" height="12"/><rect class="c" x="450" y="18" rx="2" ry="2" width="12" height="12"/><rect class="c" x="450" y="34" rx="2" ry="2" width="12" height="12"/><rect class="c" x="450" y="50" rx="2" ry="2" width="12" height="12"/><rect class="c" x="450" y="66" rx="2" ry="2" width="12" height="12"/><rect class="c" x="450" y="82" rx="2" ry="2" width="12" height="12"/><rect class="c" x="450" y="98" rx="2" ry="2" width="12" height="12"/><rect class="c" x="466" y="2" rx="2" ry="2" width="12" height="12"/><rect class="c" x="466" y="18" rx="2" ry="2" width="12" height="12"/><rect class="c" x="466" y="34" rx="2" ry="2" width="12" height="12"/><rect class="c ca" x="466" y="50" rx="2" ry="2" width="12" height="12"/><rect class="c cb" x="466" y="66" rx="2" ry="2" width="12" height="12"/><rect class="c cc" x="466" y="82" rx="2" ry="2" width="12" height="12"/><rect class="c cd" x="466" y="98" rx="2" ry="2" width="12" height="12"/><rect class="c ce" x="482" y="2" rx="2" ry="2" width="12" height="12"/><rect class="c cf" x="482" y="18" rx="2" ry="2" width="12" height="12"/><rect class="c cg" x="482" y="34" rx="2" ry="2" width="12" height="12"/><rect class="c ch" x="482" y="50" rx="2" ry="2" width="12" height="12"/><rect class="c ci" x="482" y="66" rx="2" ry="2" width="12" height="12"/><rect class="c cj" x="482" y="82" rx="2" ry="2" width="12" height="12"/><rect class="c" x="482" y="98" rx="2" ry="2" width="12" height="12"/><rect class="c" x="498" y="2" rx="2" ry="2" width="12" height="12"/><rect class="c" x="498" y="18" rx="2" ry="2" width="12" height="12"/><rect class="c" x="498" y="34" rx="2" ry="2" width="12" height="12"/><rect class="c" x="498" y="50" rx="2" ry="2" width="12" height="12"/><rect class="c" x="498" y="66" rx="2" ry="2" width="12" height="12"/><rect class="c ck" x="498" y="82" rx="2" ry="2" width="12" height="12"/><rect class="c" x="498" y="98" rx="2" ry="2" width="12" height="12"/><rect class="c cl" x="514" y="2" rx="2" ry="2" width="12" height="12"/><rect class="c cm" x="514" y="18" rx="2" ry="2" width="12" height="12"/><rect class="c cn" x="514" y="34" rx="2" ry="2" width="12" height="12"/><rect class="c co" x="514" y="50" rx="2" ry="2" width="12" height="12"/><rect class="c cp" x="514" y="66" rx="2" ry="2" width="12" height="12"/><rect class="c" x="514" y="82" rx="2" ry="2" width="12" height="12"/><rect class="c" x="514" y="98" rx="2" ry="2" width="12" height="12"/><rect class="c cq" x="530" y="2" rx="2" ry="2" width="12" height="12"/><rect class="c cr" x="530" y="18" rx="2" ry="2" width="12" height="12"/><rect class="c" x="530" y="34" rx="2" ry="2" width="12" height="12"/><rect class="c cs" x="530" y="50" rx="2" ry="2" width="12" height="12"/><rect class="c" x="530" y="66" rx="2" ry="2" width="12" height="12"/><rect class="c ct" x="530" y="82" rx="2" ry="2" width="12" height="12"/><rect class="c cu" x="530" y="98" rx="2" ry="2" width="12" height="12"/><rect class="c" x="546" y="2" rx="2" ry="2" width="12" height="12"/><rect class="c cv" x="546" y="18" rx="2" ry="2" width="12" height="12"/><rect class="c" x="546" y="34" rx="2" ry="2" width="12" height="12"/><rect class="c cw" x="546" y="50" rx="2" ry="2" width="12" height="12"/><rect class="c" x="546" y="66" rx="2" ry="2" width="12" height="12"/><rect class="c cx" x="546" y="82" rx="2" ry="2" width="12" height="12"/><rect class="c" x="546" y="98" rx="2" ry="2" width="12" height="12"/><rect class="c" x="562" y="2" rx="2" ry="2" width="12" height="12"/><rect class="c cy" x="562" y="18" rx="2" ry="2" width="12" height="12"/><rect class="c" x="562" y="34" rx="2" ry="2" width="12" height="12"/><rect class="c cz" x="562" y="50" rx="2" ry="2" width="12" height="12"/><rect class="c" x="562" y="66" rx="2" ry="2" width="12" height="12"/><rect class="c" x="562" y="82" rx="2" ry="2" width="12" height="12"/><rect class="c c10" x="562" y="98" rx="2" ry="2" width="12" height="12"/><rect class="c c11" x="578" y="2" rx="2" ry="2" width="12" height="12"/><rect class="c c12" x="578" y="18" rx="2" ry="2" width="12" height="12"/><rect class="c" x="578" y="34" rx="2" ry="2" width="12" height="12"/><rect class="c" x="578" y="50" rx="2" ry="2" width="12" height="12"/><rect class="c" x="578" y="66" rx="2" ry="2" width="12" height="12"/><rect class="c c13" x="578" y="82" rx="2" ry="2" width="12" height="12"/><rect class="c" x="578" y="98" rx="2" ry="2" width="12" height="12"/><rect class="c" x="594" y="2" rx="2" ry="2" width="12" height="12"/><rect class="c" x="594" y="18" rx="2" ry="2" width="12" height="12"/><rect class="c" x="594" y="34" rx="2" ry="2" width="12" height="12"/><rect class="c" x="594" y="50" rx="2" ry="2" width="12" height="12"/><rect class="c" x="594" y="66" rx="2" ry="2" width="12" height="12"/><rect class="c" x="594" y="82" rx="2" ry="2" width="12" height="12"/><rect class="c c14" x="594" y="98" rx="2" ry="2" width="12" height="12"/><rect class="c c15" x="610" y="2" rx="2" ry="2" width="12" height="12"/><rect class="c c16" x="610" y="18" rx="2" ry="2" width="12" height="12"/><rect class="c" x="610" y="34" rx="2" ry="2" width="12" height="12"/><rect class="c" x="610" y="50" rx="2" ry="2" width="12" height="12"/><rect class="c" x="610" y="66" rx="2" ry="2" width="12" height="12"/><rect class="c" x="610" y="82" rx="2" ry="2" width="12" height="12"/><rect class="c" x="610" y="98" rx="2" ry="2" width="12" height="12"/><rect class="c c17" x="626" y="2" rx="2" ry="2" width="12" height="12"/><rect class="c" x="626" y="18" rx="2" ry="2" width="12" height="12"/><rect class="c c18" x="626" y="34" rx="2" ry="2" width="12" height="12"/><rect class="c c19" x="626" y="50" rx="2" ry="2" width="12" height="12"/><rect class="c c1a" x="626" y="66" rx="2" ry="2" width="12" height="12"/><rect class="c" x="626" y="82" rx="2" ry="2" width="12" height="12"/><rect class="c" x="626" y="98" rx="2" ry="2" width="12" height="12"/><rect class="c" x="642" y="2" rx="2" ry="2" width="12" height="12"/><rect class="c c1b" x="642" y="18" rx="2" ry="2" width="12" height="12"/><rect class="c" x="642" y="34" rx="2" ry="2" width="12" height="12"/><rect class="c" x="642" y="50" rx="2" ry="2" width="12" height="12"/><rect class="c" x="642" y="66" rx="2" ry="2" width="12" height="12"/><rect class="c" x="642" y="82" rx="2" ry="2" width="12" height="12"/><rect class="c" x="642" y="98" rx="2" ry="2" width="12" height="12"/><rect class="c" x="658" y="2" rx="2" ry="2" width="12" height="12"/><rect class="c" x="658" y="18" rx="2" ry="2" width="12" height="12"/><rect class="c" x="658" y="34" rx="2" ry="2" width="12" height="12"/><rect class="c" x="658" y="50" rx="2" ry="2" width="12" height="12"/><rect class="c" x="658" y="66" rx="2" ry="2" width="12" height="12"/><rect class="c" x="658" y="82" rx="2" ry="2" width="12" height="12"/><rect class="c" x="658" y="98" rx="2" ry="2" width="12" height="12"/><rect class="c" x="674" y="2" rx="2" ry="2" width="12" height="12"/><rect class="c" x="674" y="18" rx="2" ry="2" width="12" height="12"/><rect class="c" x="674" y="34" rx="2" ry="2" width="12" height="12"/><rect class="c" x="674" y="50" rx="2" ry="2" width="12" height="12"/><rect class="c" x="674" y="66" rx="2" ry="2" width="12" height="12"/><rect class="c" x="674" y="82" rx="2" ry="2" width="12" height="12"/><rect class="c" x="674" y="98" rx="2" ry="2" width="12" height="12"/><rect class="c" x="690" y="2" rx="2" ry="2" width="12" height="12"/><rect class="c" x="690" y="18" rx="2" ry="2" width="12" height="12"/><rect class="c" x="690" y="34" rx="2" ry="2" width="12" height="12"/><rect class="c" x="690" y="50" rx="2" ry="2" width="12" height="12"/><rect class="c" x="690" y="66" rx="2" ry="2" width="12" height="12"/><rect class="c" x="690" y="82" rx="2" ry="2" width="12" height="12"/><rect class="c" x="690" y="98" rx="2" ry="2" width="12" height="12"/><rect class="c" x="706" y="2" rx="2" ry="2" width="12" height="12"/><rect class="c" x="706" y="18" rx="2" ry="2" width="12" height="12"/><rect class="c" x="706" y="34" rx="2" ry="2" width="12" height="12"/><rect class="c" x="706" y="50" rx="2" ry="2" width="12" height="12"/><rect class="c" x="706" y="66" rx="2" ry="2" width="12" height="12"/><rect class="c" x="706" y="82" rx="2" ry="2" width="12" height="12"/><rect class="c c1c" x="706" y="98" rx="2" ry="2" width="12" height="12"/><rect class="c" x="722" y="2" rx="2" ry="2" width="12" height="12"/><rect class="c" x="722" y="18" rx="2" ry="2" width="12" height="12"/><rect class="c" x="722" y="34" rx="2" ry="2" width="12" height="12"/><rect class="c" x="722" y="50" rx="2" ry="2" width="12" height="12"/><rect class="c" x="722" y="66" rx="2" ry="2" width="12" height="12"/><rect class="c" x="722" y="82" rx="2" ry="2" width="12" height="12"/><rect class="c" x="722" y="98" rx="2" ry="2" width="12" height="12"/><rect class="c" x="738" y="2" rx="2" ry="2" width="12" height="12"/><rect class="c" x="738" y="18" rx="2" ry="2" width="12" height="12"/><rect class="c" x="738" y="34" rx="2" ry="2" width="12" height="12"/><rect class="c" x="738" y="50" rx="2" ry="2" width="12" height="12"/><rect class="c" x="738" y="66" rx="2" ry="2" width="12" height="12"/><rect class="c" x="738" y="82" rx="2" ry="2" width="12" height="12"/><rect class="c c1d" x="738" y="98" rx="2" ry="2" width="12" height="12"/><rect class="c" x="754" y="2" rx="2" ry="2" width="12" height="12"/><rect class="c c1e" x="754" y="18" rx="2" ry="2" width="12" height="12"/><rect class="c" x="754" y="34" rx="2" ry="2" width="12" height="12"/><rect class="c" x="754" y="50" rx="2" ry="2" width="12" height="12"/><rect class="c c1f" x="754" y="66" rx="2" ry="2" width="12" height="12"/><rect class="c c1g" x="754" y="82" rx="2" ry="2" width="12" height="12"/><rect class="c" x="754" y="98" rx="2" ry="2" width="12" height="12"/><rect class="c" x="770" y="2" rx="2" ry="2" width="12" height="12"/><rect class="c" x="770" y="18" rx="2" ry="2" width="12" height="12"/><rect class="c" x="770" y="34" rx="2" ry="2" width="12" height="12"/><rect class="c" x="770" y="50" rx="2" ry="2" width="12" height="12"/><rect class="c c1h" x="770" y="66" rx="2" ry="2" width="12" height="12"/><rect class="c" x="770" y="82" rx="2" ry="2" width="12" height="12"/><rect class="c" x="770" y="98" rx="2" ry="2" width="12" height="12"/><rect class="c" x="786" y="2" rx="2" ry="2" width="12" height="12"/><rect class="c" x="786" y="18" rx="2" ry="2" width="12" height="12"/><rect class="c c1i" x="786" y="34" rx="2" ry="2" width="12" height="12"/><rect class="c" x="786" y="50" rx="2" ry="2" width="12" height="12"/><rect class="c c1j" x="786" y="66" rx="2" ry="2" width="12" height="12"/><rect class="c" x="786" y="82" rx="2" ry="2" width="12" height="12"/><rect class="c" x="786" y="98" rx="2" ry="2" width="12" height="12"/><rect class="c" x="802" y="2" rx="2" ry="2" width="12" height="12"/><rect class="c" x="802" y="18" rx="2" ry="2" width="12" height="12"/><rect class="c" x="802" y="34" rx="2" ry="2" width="12" height="12"/><rect class="c c1k" x="802" y="50" rx="2" ry="2" width="12" height="12"/><rect class="c c1l" x="802" y="66" rx="2" ry="2" width="12" height="12"/><rect class="c c1m" x="802" y="82" rx="2" ry="2" width="12" height="12"/><rect class="c c1n" x="802" y="98" rx="2" ry="2" width="12" height="12"/><rect class="c c1o" x="818" y="2" rx="2" ry="2" width="12" height="12"/><rect class="c c1p" x="818" y="18" rx="2" ry="2" width="12" height="12"/><rect class="c" x="818" y="34" rx="2" ry="2" width="12" height="12"/><rect class="c" x="818" y="50" rx="2" ry="2" width="12" height="12"/><rect class="c c1q" x="818" y="66" rx="2" ry="2" width="12" height="12"/><rect class="c" x="818" y="82" rx="2" ry="2" width="12" height="12"/><rect class="c c1r" x="818" y="98" rx="2" ry="2" width="12" height="12"/><rect class="c" x="834" y="2" rx="2" ry="2" width="12" height="12"/><rect class="c" x="834" y="18" rx="2" ry="2" width="12" height="12"/><rect class="u u0" height="12" width="570.4" x="0.0" y="144"/><rect class="u u1" height="12" width="172.8" x="569.8" y="144"/><rect class="u u2" height="12" width="66.8" x="742.0" y="144"/><rect class="u u3" height="12" width="40.4" x="808.3" y="144"/><rect class="s s0" x="0.8" y="0.8" width="14.4" height="14.4" rx="4.5" ry="4.5"/><rect class="s s1" x="1.8" y="1.8" width="12.3" height="12.3" rx="4.1" ry="4.1"/><rect class="s s2" x="2.6" y="2.6" width="10.8" height="10.8" rx="3.6" ry="3.6"/><rect class="s s3" x="3.0" y="3.0" width="9.9" height="9.9" rx="3.3" ry="3.3"/></svg>
